<mxfile host="app.diagrams.net" modified="2023-12-04T10:37:18.627Z" agent="Mozilla/5.0 (Windows NT 10.0; Win64; x64) AppleWebKit/537.36 (KHTML, like Gecko) Chrome/119.0.0.0 Safari/537.36" etag="jci2EuLN5oionAXxBMDp" version="22.1.5" type="github">
  <diagram name="Page-1" id="kogMGHTS_VCdVLMgwtnD">
    <mxGraphModel dx="2556" dy="2144" grid="1" gridSize="10" guides="1" tooltips="1" connect="1" arrows="1" fold="1" page="1" pageScale="1" pageWidth="850" pageHeight="1100" math="0" shadow="0">
      <root>
        <mxCell id="0" />
        <mxCell id="1" parent="0" />
        <mxCell id="CIXLt-_Uxg8v1NCuZv6B-1" value="Pool" style="swimlane;childLayout=stackLayout;resizeParent=1;resizeParentMax=0;horizontal=1;startSize=20;horizontalStack=0;html=1;fillColor=#e1d5e7;strokeColor=#9673a6;" parent="1" vertex="1">
          <mxGeometry x="130" y="-10" width="1790" height="1160" as="geometry" />
        </mxCell>
        <mxCell id="CIXLt-_Uxg8v1NCuZv6B-2" value="User/Customer" style="swimlane;startSize=20;horizontal=0;html=1;" parent="CIXLt-_Uxg8v1NCuZv6B-1" vertex="1">
          <mxGeometry y="20" width="1790" height="120" as="geometry" />
        </mxCell>
        <mxCell id="CIXLt-_Uxg8v1NCuZv6B-8" value="" style="edgeStyle=orthogonalEdgeStyle;rounded=0;orthogonalLoop=1;jettySize=auto;html=1;" parent="CIXLt-_Uxg8v1NCuZv6B-2" source="CIXLt-_Uxg8v1NCuZv6B-6" target="CIXLt-_Uxg8v1NCuZv6B-7" edge="1">
          <mxGeometry relative="1" as="geometry" />
        </mxCell>
        <mxCell id="CIXLt-_Uxg8v1NCuZv6B-6" value="Start" style="strokeWidth=2;html=1;shape=mxgraph.flowchart.start_2;whiteSpace=wrap;fillColor=#d5e8d4;strokeColor=#82b366;" parent="CIXLt-_Uxg8v1NCuZv6B-2" vertex="1">
          <mxGeometry x="50" y="30" width="60" height="60" as="geometry" />
        </mxCell>
        <mxCell id="CIXLt-_Uxg8v1NCuZv6B-10" value="" style="edgeStyle=orthogonalEdgeStyle;rounded=0;orthogonalLoop=1;jettySize=auto;html=1;" parent="CIXLt-_Uxg8v1NCuZv6B-2" source="CIXLt-_Uxg8v1NCuZv6B-7" target="CIXLt-_Uxg8v1NCuZv6B-9" edge="1">
          <mxGeometry relative="1" as="geometry" />
        </mxCell>
        <mxCell id="CIXLt-_Uxg8v1NCuZv6B-7" value="Input customer &lt;br&gt;details" style="whiteSpace=wrap;html=1;strokeWidth=2;" parent="CIXLt-_Uxg8v1NCuZv6B-2" vertex="1">
          <mxGeometry x="160" y="30" width="120" height="60" as="geometry" />
        </mxCell>
        <mxCell id="CIXLt-_Uxg8v1NCuZv6B-12" value="" style="edgeStyle=orthogonalEdgeStyle;rounded=0;orthogonalLoop=1;jettySize=auto;html=1;" parent="CIXLt-_Uxg8v1NCuZv6B-2" source="CIXLt-_Uxg8v1NCuZv6B-9" target="CIXLt-_Uxg8v1NCuZv6B-11" edge="1">
          <mxGeometry relative="1" as="geometry" />
        </mxCell>
        <mxCell id="CIXLt-_Uxg8v1NCuZv6B-9" value="Input Loan Details" style="whiteSpace=wrap;html=1;strokeWidth=2;" parent="CIXLt-_Uxg8v1NCuZv6B-2" vertex="1">
          <mxGeometry x="360" y="30" width="120" height="60" as="geometry" />
        </mxCell>
        <mxCell id="CIXLt-_Uxg8v1NCuZv6B-16" value="" style="edgeStyle=orthogonalEdgeStyle;rounded=0;orthogonalLoop=1;jettySize=auto;html=1;" parent="CIXLt-_Uxg8v1NCuZv6B-2" source="CIXLt-_Uxg8v1NCuZv6B-11" target="CIXLt-_Uxg8v1NCuZv6B-15" edge="1">
          <mxGeometry relative="1" as="geometry" />
        </mxCell>
        <mxCell id="CIXLt-_Uxg8v1NCuZv6B-11" value="Upload documents" style="whiteSpace=wrap;html=1;strokeWidth=2;" parent="CIXLt-_Uxg8v1NCuZv6B-2" vertex="1">
          <mxGeometry x="560" y="30" width="120" height="60" as="geometry" />
        </mxCell>
        <mxCell id="CIXLt-_Uxg8v1NCuZv6B-15" value="Submit" style="whiteSpace=wrap;html=1;strokeWidth=2;" parent="CIXLt-_Uxg8v1NCuZv6B-2" vertex="1">
          <mxGeometry x="730" y="30" width="120" height="60" as="geometry" />
        </mxCell>
        <mxCell id="CIXLt-_Uxg8v1NCuZv6B-47" value="" style="edgeStyle=orthogonalEdgeStyle;rounded=0;orthogonalLoop=1;jettySize=auto;html=1;" parent="CIXLt-_Uxg8v1NCuZv6B-2" source="CIXLt-_Uxg8v1NCuZv6B-42" target="CIXLt-_Uxg8v1NCuZv6B-46" edge="1">
          <mxGeometry relative="1" as="geometry" />
        </mxCell>
        <mxCell id="CIXLt-_Uxg8v1NCuZv6B-42" value="User notified" style="whiteSpace=wrap;html=1;strokeWidth=2;" parent="CIXLt-_Uxg8v1NCuZv6B-2" vertex="1">
          <mxGeometry x="1310" y="20" width="120" height="60" as="geometry" />
        </mxCell>
        <mxCell id="CIXLt-_Uxg8v1NCuZv6B-44" value="" style="shape=message;html=1;html=1;outlineConnect=0;labelPosition=center;verticalLabelPosition=bottom;align=center;verticalAlign=top;" parent="CIXLt-_Uxg8v1NCuZv6B-2" vertex="1">
          <mxGeometry x="1348" y="60" width="45" height="30" as="geometry" />
        </mxCell>
        <mxCell id="CIXLt-_Uxg8v1NCuZv6B-46" value="End" style="ellipse;shape=doubleEllipse;whiteSpace=wrap;html=1;fillColor=#f8cecc;strokeColor=#b85450;" parent="CIXLt-_Uxg8v1NCuZv6B-2" vertex="1">
          <mxGeometry x="1505" y="10" width="88.89" height="80" as="geometry" />
        </mxCell>
        <mxCell id="CIXLt-_Uxg8v1NCuZv6B-3" value="&#39;" style="swimlane;startSize=20;horizontal=0;html=1;" parent="CIXLt-_Uxg8v1NCuZv6B-1" vertex="1">
          <mxGeometry y="140" width="1790" height="390" as="geometry" />
        </mxCell>
        <mxCell id="CIXLt-_Uxg8v1NCuZv6B-20" value="" style="edgeStyle=orthogonalEdgeStyle;rounded=0;orthogonalLoop=1;jettySize=auto;html=1;" parent="CIXLt-_Uxg8v1NCuZv6B-3" source="CIXLt-_Uxg8v1NCuZv6B-17" target="CIXLt-_Uxg8v1NCuZv6B-19" edge="1">
          <mxGeometry relative="1" as="geometry" />
        </mxCell>
        <mxCell id="CIXLt-_Uxg8v1NCuZv6B-17" value="Validate Information" style="whiteSpace=wrap;html=1;strokeWidth=2;" parent="CIXLt-_Uxg8v1NCuZv6B-3" vertex="1">
          <mxGeometry x="730" y="70" width="120" height="60" as="geometry" />
        </mxCell>
        <mxCell id="CIXLt-_Uxg8v1NCuZv6B-22" value="" style="edgeStyle=orthogonalEdgeStyle;rounded=0;orthogonalLoop=1;jettySize=auto;html=1;" parent="CIXLt-_Uxg8v1NCuZv6B-3" source="CIXLt-_Uxg8v1NCuZv6B-19" target="CIXLt-_Uxg8v1NCuZv6B-21" edge="1">
          <mxGeometry relative="1" as="geometry" />
        </mxCell>
        <mxCell id="CIXLt-_Uxg8v1NCuZv6B-19" value="Verify Documents and customer details" style="whiteSpace=wrap;html=1;strokeWidth=2;" parent="CIXLt-_Uxg8v1NCuZv6B-3" vertex="1">
          <mxGeometry x="560" y="70" width="120" height="60" as="geometry" />
        </mxCell>
        <mxCell id="CIXLt-_Uxg8v1NCuZv6B-26" value="" style="edgeStyle=orthogonalEdgeStyle;rounded=0;orthogonalLoop=1;jettySize=auto;html=1;" parent="CIXLt-_Uxg8v1NCuZv6B-3" source="CIXLt-_Uxg8v1NCuZv6B-21" target="CIXLt-_Uxg8v1NCuZv6B-25" edge="1">
          <mxGeometry relative="1" as="geometry" />
        </mxCell>
        <mxCell id="CIXLt-_Uxg8v1NCuZv6B-28" value="No" style="edgeLabel;html=1;align=center;verticalAlign=middle;resizable=0;points=[];" parent="CIXLt-_Uxg8v1NCuZv6B-26" vertex="1" connectable="0">
          <mxGeometry x="-0.3493" relative="1" as="geometry">
            <mxPoint as="offset" />
          </mxGeometry>
        </mxCell>
        <mxCell id="CIXLt-_Uxg8v1NCuZv6B-30" value="" style="edgeStyle=orthogonalEdgeStyle;rounded=0;orthogonalLoop=1;jettySize=auto;html=1;" parent="CIXLt-_Uxg8v1NCuZv6B-3" source="CIXLt-_Uxg8v1NCuZv6B-21" target="CIXLt-_Uxg8v1NCuZv6B-29" edge="1">
          <mxGeometry relative="1" as="geometry" />
        </mxCell>
        <mxCell id="CIXLt-_Uxg8v1NCuZv6B-39" value="Yes" style="edgeLabel;html=1;align=center;verticalAlign=middle;resizable=0;points=[];" parent="CIXLt-_Uxg8v1NCuZv6B-30" vertex="1" connectable="0">
          <mxGeometry x="-0.1289" y="-1" relative="1" as="geometry">
            <mxPoint as="offset" />
          </mxGeometry>
        </mxCell>
        <mxCell id="CIXLt-_Uxg8v1NCuZv6B-21" value="Valid?" style="rhombus;whiteSpace=wrap;html=1;strokeWidth=2;" parent="CIXLt-_Uxg8v1NCuZv6B-3" vertex="1">
          <mxGeometry x="475" y="240" width="80" height="80" as="geometry" />
        </mxCell>
        <mxCell id="CIXLt-_Uxg8v1NCuZv6B-25" value="Send failure&amp;nbsp;&lt;br&gt;notification" style="whiteSpace=wrap;html=1;strokeWidth=2;" parent="CIXLt-_Uxg8v1NCuZv6B-3" vertex="1">
          <mxGeometry x="290" y="50" width="120" height="60" as="geometry" />
        </mxCell>
        <mxCell id="CIXLt-_Uxg8v1NCuZv6B-34" value="" style="edgeStyle=orthogonalEdgeStyle;rounded=0;orthogonalLoop=1;jettySize=auto;html=1;" parent="CIXLt-_Uxg8v1NCuZv6B-3" source="CIXLt-_Uxg8v1NCuZv6B-29" target="CIXLt-_Uxg8v1NCuZv6B-33" edge="1">
          <mxGeometry relative="1" as="geometry" />
        </mxCell>
        <mxCell id="CIXLt-_Uxg8v1NCuZv6B-29" value="Rate Loan" style="whiteSpace=wrap;html=1;strokeWidth=2;" parent="CIXLt-_Uxg8v1NCuZv6B-3" vertex="1">
          <mxGeometry x="675" y="250" width="120" height="60" as="geometry" />
        </mxCell>
        <mxCell id="CIXLt-_Uxg8v1NCuZv6B-33" value="Qualified?" style="rhombus;whiteSpace=wrap;html=1;strokeWidth=2;" parent="CIXLt-_Uxg8v1NCuZv6B-3" vertex="1">
          <mxGeometry x="920" y="240" width="80" height="80" as="geometry" />
        </mxCell>
        <mxCell id="CIXLt-_Uxg8v1NCuZv6B-38" value="" style="edgeStyle=orthogonalEdgeStyle;rounded=0;orthogonalLoop=1;jettySize=auto;html=1;" parent="CIXLt-_Uxg8v1NCuZv6B-3" source="CIXLt-_Uxg8v1NCuZv6B-35" target="CIXLt-_Uxg8v1NCuZv6B-37" edge="1">
          <mxGeometry relative="1" as="geometry" />
        </mxCell>
        <mxCell id="CIXLt-_Uxg8v1NCuZv6B-35" value="Approve" style="whiteSpace=wrap;html=1;strokeWidth=2;" parent="CIXLt-_Uxg8v1NCuZv6B-3" vertex="1">
          <mxGeometry x="900" y="80" width="120" height="60" as="geometry" />
        </mxCell>
        <mxCell id="CIXLt-_Uxg8v1NCuZv6B-37" value="Send Email" style="whiteSpace=wrap;html=1;strokeWidth=2;" parent="CIXLt-_Uxg8v1NCuZv6B-3" vertex="1">
          <mxGeometry x="1085" y="80" width="120" height="60" as="geometry" />
        </mxCell>
        <mxCell id="CIXLt-_Uxg8v1NCuZv6B-36" value="" style="edgeStyle=elbowEdgeStyle;rounded=0;orthogonalLoop=1;jettySize=auto;html=1;jumpStyle=arc;jumpSize=26;exitX=0.5;exitY=0;exitDx=0;exitDy=0;" parent="CIXLt-_Uxg8v1NCuZv6B-3" source="CIXLt-_Uxg8v1NCuZv6B-33" target="CIXLt-_Uxg8v1NCuZv6B-35" edge="1">
          <mxGeometry relative="1" as="geometry">
            <mxPoint x="780" y="180" as="sourcePoint" />
            <Array as="points">
              <mxPoint x="960" y="170" />
            </Array>
          </mxGeometry>
        </mxCell>
        <mxCell id="CIXLt-_Uxg8v1NCuZv6B-41" value="Yes" style="edgeLabel;html=1;align=center;verticalAlign=middle;resizable=0;points=[];" parent="CIXLt-_Uxg8v1NCuZv6B-36" vertex="1" connectable="0">
          <mxGeometry x="-0.5033" y="-2" relative="1" as="geometry">
            <mxPoint as="offset" />
          </mxGeometry>
        </mxCell>
        <mxCell id="CIXLt-_Uxg8v1NCuZv6B-4" value="1st level Approver" style="swimlane;startSize=20;horizontal=0;html=1;" parent="CIXLt-_Uxg8v1NCuZv6B-1" vertex="1">
          <mxGeometry y="530" width="1790" height="370" as="geometry" />
        </mxCell>
        <mxCell id="CIXLt-_Uxg8v1NCuZv6B-51" value="" style="edgeStyle=orthogonalEdgeStyle;rounded=0;orthogonalLoop=1;jettySize=auto;html=1;" parent="CIXLt-_Uxg8v1NCuZv6B-4" source="CIXLt-_Uxg8v1NCuZv6B-48" target="CIXLt-_Uxg8v1NCuZv6B-50" edge="1">
          <mxGeometry relative="1" as="geometry" />
        </mxCell>
        <mxCell id="CIXLt-_Uxg8v1NCuZv6B-48" value="Review Loan" style="whiteSpace=wrap;html=1;strokeWidth=2;" parent="CIXLt-_Uxg8v1NCuZv6B-4" vertex="1">
          <mxGeometry x="900" y="150" width="120" height="60" as="geometry" />
        </mxCell>
        <mxCell id="CIXLt-_Uxg8v1NCuZv6B-50" value="Special &lt;br&gt;Case" style="rhombus;whiteSpace=wrap;html=1;strokeWidth=2;" parent="CIXLt-_Uxg8v1NCuZv6B-4" vertex="1">
          <mxGeometry x="1120" y="140" width="80" height="80" as="geometry" />
        </mxCell>
        <mxCell id="CIXLt-_Uxg8v1NCuZv6B-54" value="" style="edgeStyle=orthogonalEdgeStyle;rounded=0;orthogonalLoop=1;jettySize=auto;html=1;" parent="CIXLt-_Uxg8v1NCuZv6B-4" source="CIXLt-_Uxg8v1NCuZv6B-50" target="CIXLt-_Uxg8v1NCuZv6B-53" edge="1">
          <mxGeometry relative="1" as="geometry" />
        </mxCell>
        <mxCell id="CIXLt-_Uxg8v1NCuZv6B-55" value="No" style="edgeLabel;html=1;align=center;verticalAlign=middle;resizable=0;points=[];" parent="CIXLt-_Uxg8v1NCuZv6B-54" vertex="1" connectable="0">
          <mxGeometry x="-0.12" y="-1" relative="1" as="geometry">
            <mxPoint as="offset" />
          </mxGeometry>
        </mxCell>
        <mxCell id="CIXLt-_Uxg8v1NCuZv6B-53" value="Deny loan" style="whiteSpace=wrap;html=1;strokeWidth=2;" parent="CIXLt-_Uxg8v1NCuZv6B-4" vertex="1">
          <mxGeometry x="1040" y="20" width="120" height="60" as="geometry" />
        </mxCell>
        <mxCell id="CIXLt-_Uxg8v1NCuZv6B-5" value="Lane 3" style="swimlane;startSize=20;horizontal=0;html=1;" parent="CIXLt-_Uxg8v1NCuZv6B-1" vertex="1">
          <mxGeometry y="900" width="1790" height="260" as="geometry" />
        </mxCell>
        <mxCell id="CIXLt-_Uxg8v1NCuZv6B-62" value="" style="edgeStyle=orthogonalEdgeStyle;rounded=0;orthogonalLoop=1;jettySize=auto;html=1;" parent="CIXLt-_Uxg8v1NCuZv6B-5" source="CIXLt-_Uxg8v1NCuZv6B-56" target="CIXLt-_Uxg8v1NCuZv6B-61" edge="1">
          <mxGeometry relative="1" as="geometry" />
        </mxCell>
        <mxCell id="CIXLt-_Uxg8v1NCuZv6B-56" value="Review Loan" style="whiteSpace=wrap;html=1;strokeWidth=2;" parent="CIXLt-_Uxg8v1NCuZv6B-5" vertex="1">
          <mxGeometry x="640" y="40" width="120" height="60" as="geometry" />
        </mxCell>
        <mxCell id="CIXLt-_Uxg8v1NCuZv6B-72" value="" style="edgeStyle=orthogonalEdgeStyle;rounded=0;orthogonalLoop=1;jettySize=auto;html=1;exitX=0.5;exitY=1;exitDx=0;exitDy=0;entryX=0;entryY=0.5;entryDx=0;entryDy=0;" parent="CIXLt-_Uxg8v1NCuZv6B-5" source="CIXLt-_Uxg8v1NCuZv6B-61" target="CIXLt-_Uxg8v1NCuZv6B-71" edge="1">
          <mxGeometry relative="1" as="geometry">
            <mxPoint x="939.9411764705883" y="120.00117647058829" as="sourcePoint" />
            <mxPoint x="1530" y="240.0011764705883" as="targetPoint" />
            <Array as="points">
              <mxPoint x="880" y="160" />
              <mxPoint x="1530" y="160" />
            </Array>
          </mxGeometry>
        </mxCell>
        <mxCell id="CIXLt-_Uxg8v1NCuZv6B-73" value="Yes" style="edgeLabel;html=1;align=center;verticalAlign=middle;resizable=0;points=[];" parent="CIXLt-_Uxg8v1NCuZv6B-72" vertex="1" connectable="0">
          <mxGeometry x="0.0922" y="-1" relative="1" as="geometry">
            <mxPoint as="offset" />
          </mxGeometry>
        </mxCell>
        <mxCell id="CIXLt-_Uxg8v1NCuZv6B-61" value="Acceptable?" style="rhombus;whiteSpace=wrap;html=1;strokeWidth=2;" parent="CIXLt-_Uxg8v1NCuZv6B-5" vertex="1">
          <mxGeometry x="840" y="30" width="80" height="80" as="geometry" />
        </mxCell>
        <mxCell id="CIXLt-_Uxg8v1NCuZv6B-65" value="Deny loan" style="whiteSpace=wrap;html=1;strokeWidth=2;" parent="CIXLt-_Uxg8v1NCuZv6B-5" vertex="1">
          <mxGeometry x="1260" y="40" width="120" height="60" as="geometry" />
        </mxCell>
        <mxCell id="CIXLt-_Uxg8v1NCuZv6B-63" style="edgeStyle=orthogonalEdgeStyle;rounded=0;orthogonalLoop=1;jettySize=auto;html=1;entryX=0;entryY=0.5;entryDx=0;entryDy=0;" parent="CIXLt-_Uxg8v1NCuZv6B-5" source="CIXLt-_Uxg8v1NCuZv6B-61" target="CIXLt-_Uxg8v1NCuZv6B-65" edge="1">
          <mxGeometry relative="1" as="geometry">
            <mxPoint x="1040" y="-320" as="targetPoint" />
            <Array as="points" />
          </mxGeometry>
        </mxCell>
        <mxCell id="CIXLt-_Uxg8v1NCuZv6B-64" value="No" style="edgeLabel;html=1;align=center;verticalAlign=middle;resizable=0;points=[];" parent="CIXLt-_Uxg8v1NCuZv6B-63" vertex="1" connectable="0">
          <mxGeometry x="0.0297" y="1" relative="1" as="geometry">
            <mxPoint as="offset" />
          </mxGeometry>
        </mxCell>
        <mxCell id="CIXLt-_Uxg8v1NCuZv6B-71" value="Approve" style="whiteSpace=wrap;html=1;strokeWidth=2;" parent="CIXLt-_Uxg8v1NCuZv6B-5" vertex="1">
          <mxGeometry x="1530" y="130" width="120" height="60" as="geometry" />
        </mxCell>
        <mxCell id="CIXLt-_Uxg8v1NCuZv6B-18" value="" style="edgeStyle=orthogonalEdgeStyle;rounded=0;orthogonalLoop=1;jettySize=auto;html=1;" parent="CIXLt-_Uxg8v1NCuZv6B-1" source="CIXLt-_Uxg8v1NCuZv6B-15" target="CIXLt-_Uxg8v1NCuZv6B-17" edge="1">
          <mxGeometry relative="1" as="geometry" />
        </mxCell>
        <mxCell id="CIXLt-_Uxg8v1NCuZv6B-23" value="" style="edgeStyle=orthogonalEdgeStyle;rounded=0;orthogonalLoop=1;jettySize=auto;html=1;entryX=0.5;entryY=1;entryDx=0;entryDy=0;" parent="CIXLt-_Uxg8v1NCuZv6B-1" target="CIXLt-_Uxg8v1NCuZv6B-7" edge="1">
          <mxGeometry relative="1" as="geometry">
            <mxPoint x="290" y="220" as="sourcePoint" />
          </mxGeometry>
        </mxCell>
        <mxCell id="CIXLt-_Uxg8v1NCuZv6B-43" value="" style="edgeStyle=orthogonalEdgeStyle;rounded=0;orthogonalLoop=1;jettySize=auto;html=1;entryX=0.5;entryY=1;entryDx=0;entryDy=0;" parent="CIXLt-_Uxg8v1NCuZv6B-1" source="CIXLt-_Uxg8v1NCuZv6B-37" target="CIXLt-_Uxg8v1NCuZv6B-44" edge="1">
          <mxGeometry relative="1" as="geometry">
            <mxPoint x="1250" y="160" as="targetPoint" />
          </mxGeometry>
        </mxCell>
        <mxCell id="CIXLt-_Uxg8v1NCuZv6B-49" value="" style="edgeStyle=orthogonalEdgeStyle;rounded=0;orthogonalLoop=1;jettySize=auto;html=1;" parent="CIXLt-_Uxg8v1NCuZv6B-1" source="CIXLt-_Uxg8v1NCuZv6B-33" target="CIXLt-_Uxg8v1NCuZv6B-48" edge="1">
          <mxGeometry relative="1" as="geometry" />
        </mxCell>
        <mxCell id="CIXLt-_Uxg8v1NCuZv6B-59" value="No" style="edgeLabel;html=1;align=center;verticalAlign=middle;resizable=0;points=[];" parent="CIXLt-_Uxg8v1NCuZv6B-49" vertex="1" connectable="0">
          <mxGeometry x="0.26" relative="1" as="geometry">
            <mxPoint as="offset" />
          </mxGeometry>
        </mxCell>
        <mxCell id="CIXLt-_Uxg8v1NCuZv6B-57" value="" style="edgeStyle=orthogonalEdgeStyle;rounded=0;orthogonalLoop=1;jettySize=auto;html=1;" parent="CIXLt-_Uxg8v1NCuZv6B-1" source="CIXLt-_Uxg8v1NCuZv6B-50" target="CIXLt-_Uxg8v1NCuZv6B-56" edge="1">
          <mxGeometry relative="1" as="geometry">
            <Array as="points">
              <mxPoint x="1160" y="830" />
              <mxPoint x="700" y="830" />
            </Array>
          </mxGeometry>
        </mxCell>
        <mxCell id="CIXLt-_Uxg8v1NCuZv6B-58" value="Yes" style="edgeLabel;html=1;align=center;verticalAlign=middle;resizable=0;points=[];" parent="CIXLt-_Uxg8v1NCuZv6B-57" vertex="1" connectable="0">
          <mxGeometry x="-0.1224" y="-1" relative="1" as="geometry">
            <mxPoint as="offset" />
          </mxGeometry>
        </mxCell>
        <mxCell id="CIXLt-_Uxg8v1NCuZv6B-68" style="edgeStyle=orthogonalEdgeStyle;rounded=0;orthogonalLoop=1;jettySize=auto;html=1;entryX=0.147;entryY=1.066;entryDx=0;entryDy=0;exitX=0.5;exitY=0;exitDx=0;exitDy=0;entryPerimeter=0;" parent="CIXLt-_Uxg8v1NCuZv6B-1" source="CIXLt-_Uxg8v1NCuZv6B-53" target="CIXLt-_Uxg8v1NCuZv6B-37" edge="1">
          <mxGeometry relative="1" as="geometry">
            <Array as="points">
              <mxPoint x="1103" y="550" />
            </Array>
          </mxGeometry>
        </mxCell>
        <mxCell id="CIXLt-_Uxg8v1NCuZv6B-74" style="edgeStyle=orthogonalEdgeStyle;rounded=0;orthogonalLoop=1;jettySize=auto;html=1;entryX=0.867;entryY=1.08;entryDx=0;entryDy=0;entryPerimeter=0;" parent="CIXLt-_Uxg8v1NCuZv6B-1" source="CIXLt-_Uxg8v1NCuZv6B-71" target="CIXLt-_Uxg8v1NCuZv6B-37" edge="1">
          <mxGeometry relative="1" as="geometry">
            <Array as="points">
              <mxPoint x="1590" y="380" />
              <mxPoint x="1320" y="380" />
              <mxPoint x="1320" y="330" />
              <mxPoint x="1189" y="330" />
            </Array>
          </mxGeometry>
        </mxCell>
        <mxCell id="CIXLt-_Uxg8v1NCuZv6B-77" style="edgeStyle=orthogonalEdgeStyle;rounded=0;orthogonalLoop=1;jettySize=auto;html=1;entryX=0.582;entryY=1.052;entryDx=0;entryDy=0;entryPerimeter=0;" parent="CIXLt-_Uxg8v1NCuZv6B-1" source="CIXLt-_Uxg8v1NCuZv6B-65" target="CIXLt-_Uxg8v1NCuZv6B-37" edge="1">
          <mxGeometry relative="1" as="geometry">
            <Array as="points">
              <mxPoint x="1280" y="440" />
              <mxPoint x="1155" y="440" />
            </Array>
          </mxGeometry>
        </mxCell>
      </root>
    </mxGraphModel>
  </diagram>
</mxfile>
